<svg height="512pt" viewBox="0 0 512 512.00003" width="512pt" xmlns="http://www.w3.org/2000/svg"><path d="m421 226c0 46.199219-18.300781 88.800781-51.898438 120-26.703124 25.5-32.402343 45.300781-38.101562 75 0 0-14.398438 18.398438-23.402344 31h-99.898437l-26.699219-31c-8.402344-30-13.800781-51.601562-39.300781-75.902344-39.597657-38.097656-57.597657-93.597656-48-148.5 11.101562-65.398437 62.101562-118.496094 126.902343-131.996094 11.699219-2.402343 23.699219-3.601562 35.398438-3.601562 37.800781 0 74.699219 12.597656 104.097656 36.898438 38.703125 31.5 60.902344 78.300781 60.902344 128.101562zm0 0" fill="#ffe470"/><path d="m421 226c0 46.199219-18.300781 88.800781-51.898438 120-26.703124 25.5-32.402343 45.300781-38.101562 75 0 0-14.398438 18.398438-23.402344 31h-51.597656v-391c37.800781 0 74.699219 12.597656 104.097656 36.898438 38.703125 31.5 60.902344 78.300781 60.902344 128.101562zm0 0" fill="#ffd400"/><path d="m45 241h-30c-8.289062 0-15-6.707031-15-15 0-8.289062 6.710938-15 15-15h30c8.289062 0 15 6.710938 15 15 0 8.292969-6.710938 15-15 15zm0 0" fill="#fdbf00"/><path d="m497 241h-30c-8.289062 0-15-6.707031-15-15 0-8.289062 6.710938-15 15-15h30c8.289062 0 15 6.710938 15 15 0 8.292969-6.710938 15-15 15zm0 0" fill="#ff9f00"/><path d="m74.125 136c-2.550781 0-5.128906-.644531-7.484375-2.007812l-25.988281-15c-7.175782-4.144532-9.636719-13.3125-5.492188-20.492188 4.148438-7.179688 13.332032-9.640625 20.492188-5.492188l25.988281 15c7.175781 4.144532 9.636719 13.3125 5.492187 20.492188-2.78125 4.804688-7.820312 7.5-13.007812 7.5zm0 0" fill="#fdbf00"/><path d="m463.832031 361c-2.550781 0-5.128906-.644531-7.484375-2.007812l-25.988281-15c-7.175781-4.144532-9.636719-13.3125-5.492187-20.492188 4.132812-7.179688 13.316406-9.625 20.492187-5.492188l25.988281 15c7.175782 4.144532 9.636719 13.3125 5.492188 20.492188-2.78125 4.804688-7.820313 7.5-13.007813 7.5zm0 0" fill="#ff9f00"/><path d="m151.015625 55.984375c-5.1875 0-10.226563-2.695313-13.007813-7.5l-15-25.988281c-4.148437-7.175782-1.6875-16.347656 5.492188-20.492188 7.148438-4.132812 16.332031-1.667968 20.492188 5.492188l15 25.988281c4.148437 7.175781 1.6875 16.347656-5.492188 20.492187-2.359375 1.363282-4.9375 2.007813-7.484375 2.007813zm0 0" fill="#fdbf00"/><path d="m48.167969 361c-5.1875 0-10.226563-2.695312-13.007813-7.5-4.144531-7.179688-1.683594-16.347656 5.492188-20.492188l25.988281-15c7.132813-4.132812 16.316406-1.6875 20.492187 5.492188 4.144532 7.179688 1.683594 16.347656-5.492187 20.492188l-25.988281 15c-2.355469 1.363281-4.933594 2.007812-7.484375 2.007812zm0 0" fill="#fdbf00"/><path d="m437.875 136c-5.1875 0-10.226562-2.695312-13.007812-7.5-4.144532-7.179688-1.683594-16.347656 5.492187-20.492188l25.988281-15c7.132813-4.148437 16.347656-1.6875 20.492188 5.492188 4.144531 7.179688 1.683594 16.347656-5.492188 20.492188l-25.988281 15c-2.355469 1.363281-4.933594 2.007812-7.484375 2.007812zm0 0" fill="#ff9f00"/><path d="m360.984375 56.140625c-2.546875 0-5.125-.644531-7.484375-2.007813-7.179688-4.144531-9.640625-13.316406-5.492188-20.492187l15-25.988281c4.160157-7.160156 13.300782-9.621094 20.492188-5.492188 7.179688 4.148438 9.640625 13.316406 5.492188 20.492188l-15 25.988281c-2.78125 4.804687-7.820313 7.5-13.007813 7.5zm0 0" fill="#ff9f00"/><path d="m356.5 215.5c-5.699219-6-15.300781-6-21 0l-19.5 19.199219-19.5-19.199219c-5.699219-6-15.300781-6-21 0l-19.5 19.199219-19.5-19.199219c-5.699219-6-15.300781-6-21 0l-19.5 19.199219-19.5-19.199219c-5.699219-6-15.300781-6-21 0-6 5.699219-6 15.300781 0 21l28.800781 29.101562 56.699219 84.898438v85.5c0 8.398438 6.597656 16 15 16s15-7.601562 15-16v-85.5l56.699219-84.898438 28.800781-29.101562c6-5.699219 6-15.300781 0-21zm-100.5 103.5-40.800781-61.199219 10.800781-10.5 19.5 19.199219c2.699219 3 6.601562 4.5 10.5 4.5s7.800781-1.5 10.5-4.5l19.5-19.199219 10.800781 10.5zm0 0" fill="#fdbf00"/><path d="m356.5 236.5-28.800781 29.101562-56.699219 84.898438v85.5c0 8.398438-6.597656 16-15 16v-133l40.800781-61.199219-10.800781-10.5-19.5 19.199219c-2.699219 3-6.601562 4.5-10.5 4.5v-36.300781l19.5-19.199219c5.699219-6 15.300781-6 21 0l19.5 19.199219 19.503906-19.199219c5.699219-6 15.296875-6 20.996094 0 6 5.699219 6 15.300781 0 21zm0 0" fill="#ff9f00"/><path d="m181 421v46c0 24.898438 20.097656 45 45 45h60c24.902344 0 45-20.101562 45-45v-46zm0 0" fill="#deecf1"/><path d="m331 421v46c0 24.898438-20.097656 45-45 45h-30v-91zm0 0" fill="#a8d3d8"/></svg>