<svg xmlns="http://www.w3.org/2000/svg" height="511.99998pt" version="1.1" viewBox="1 1 511.99998 511.99998" width="511.99998pt">
<g id="surface1">
<path d="M 512 256 C 512 322.058594 486.976562 382.277344 445.890625 427.6875 C 426.894531 448.699219 404.449219 466.535156 379.445312 480.320312 C 363.550781 489.097656 346.625 496.222656 328.902344 501.46875 C 305.800781 508.320312 281.328125 512 256 512 C 219.878906 512 185.5 504.519531 154.34375 491.019531 C 142.710938 485.980469 131.53125 480.109375 120.875 473.476562 C 48.304688 428.28125 0 347.785156 0 256 C 0 247.871094 0.375 239.824219 1.117188 231.894531 C 13.269531 101.816406 122.746094 0 256 0 C 292.917969 0 328.003906 7.816406 359.707031 21.878906 C 385.734375 33.425781 409.484375 49.183594 430.078125 68.304688 C 480.464844 115.054688 512 181.84375 512 256 Z M 512 256 " style=" stroke:none;fill-rule:nonzero;fill:rgb(27.058824%,69.411765%,85.882353%);fill-opacity:1;" />
<path d="M 258.363281 434.355469 C 243.765625 450.496094 226.535156 464.195312 207.328125 474.78125 C 195.125 481.519531 182.125 486.984375 168.511719 491.019531 L 154.34375 491.019531 C 142.710938 485.980469 131.53125 480.109375 120.875 473.476562 L 125.636719 365.191406 L 133.027344 197.328125 L 134.613281 161.226562 L 136.308594 122.703125 L 244.640625 122.703125 L 246.21875 158.355469 L 246.34375 161.226562 L 247.933594 197.328125 Z M 258.363281 434.355469 " style=" stroke:none;fill-rule:nonzero;fill:rgb(86.27451%,92.54902%,97.647059%);fill-opacity:1;" />
<path d="M 171.21875 122.703125 L 163.433594 416.949219 L 125.636719 365.191406 L 133.027344 197.324219 L 134.617188 161.222656 L 136.308594 122.703125 Z M 171.21875 122.703125 " style=" stroke:none;fill-rule:nonzero;fill:rgb(68.627451%,76.078431%,92.156863%);fill-opacity:1;" />
<path d="M 247.933594 197.324219 L 133.027344 197.324219 L 134.617188 161.222656 L 246.34375 161.222656 Z M 247.933594 197.324219 " style=" stroke:none;fill-rule:nonzero;fill:rgb(94.901961%,26.27451%,33.333333%);fill-opacity:1;" />
<path d="M 170.199219 161.222656 L 169.242188 197.324219 L 133.027344 197.324219 L 134.617188 161.222656 Z M 170.199219 161.222656 " style=" stroke:none;fill-rule:nonzero;fill:rgb(85.490196%,14.901961%,24.313725%);fill-opacity:1;" />
<path d="M 445.890625 427.6875 C 426.894531 448.699219 404.449219 466.535156 379.445312 480.320312 C 363.550781 489.097656 346.625 496.222656 328.902344 501.46875 L 265.863281 501.46875 L 273.074219 337.628906 L 282.695312 119.046875 L 284.765625 72.035156 L 286.972656 21.878906 L 428.03125 21.878906 L 430.078125 68.304688 L 430.246094 72.035156 L 432.316406 119.046875 Z M 445.890625 427.6875 " style=" stroke:none;fill-rule:nonzero;fill:rgb(86.27451%,92.54902%,97.647059%);fill-opacity:1;" />
<path d="M 332.425781 21.878906 L 322.289062 405.023438 L 273.074219 337.628906 L 282.695312 119.046875 L 284.765625 72.035156 L 286.972656 21.878906 Z M 332.425781 21.878906 " style=" stroke:none;fill-rule:nonzero;fill:rgb(68.627451%,76.078431%,92.156863%);fill-opacity:1;" />
<path d="M 379.445312 231.894531 L 379.445312 480.320312 C 366.027344 487.726562 351.878906 493.953125 337.125 498.875 C 327.480469 502.105469 317.585938 504.757812 307.460938 506.816406 C 298.191406 508.71875 288.726562 510.109375 279.113281 510.964844 C 271.507812 511.65625 263.796875 512 256 512 C 253.804688 512 251.621094 511.96875 249.449219 511.90625 C 239.855469 511.675781 230.398438 510.914062 221.101562 509.636719 C 211.015625 508.269531 201.113281 506.304688 191.4375 503.777344 C 181.75 501.269531 172.28125 498.195312 163.085938 494.601562 C 152.859375 490.632812 142.953125 486.011719 133.421875 480.800781 C 123.558594 475.40625 114.09375 469.390625 105.074219 462.796875 C 95.054688 455.472656 85.597656 447.445312 76.769531 438.773438 C 61.953125 424.25 48.890625 407.9375 37.949219 390.1875 C 29.925781 377.175781 23.03125 363.394531 17.40625 348.984375 C 6.164062 320.15625 0 288.800781 0 256 C 0 247.871094 0.375 239.824219 1.117188 231.894531 Z M 379.445312 231.894531 " style=" stroke:none;fill-rule:nonzero;fill:rgb(94.901961%,26.27451%,33.333333%);fill-opacity:1;" />
<path d="M 432.316406 119.046875 L 282.695312 119.046875 L 284.765625 72.035156 L 430.246094 72.035156 Z M 432.316406 119.046875 " style=" stroke:none;fill-rule:nonzero;fill:rgb(94.901961%,26.27451%,33.333333%);fill-opacity:1;" />
<path d="M 331.097656 72.035156 L 329.851562 119.046875 L 282.695312 119.046875 L 284.765625 72.035156 Z M 331.097656 72.035156 " style=" stroke:none;fill-rule:nonzero;fill:rgb(85.490196%,14.901961%,24.313725%);fill-opacity:1;" />
<path d="M 307.460938 271.074219 L 337.125 271.074219 L 337.125 390.1875 L 307.460938 390.1875 Z M 307.460938 271.074219 " style=" stroke:none;fill-rule:nonzero;fill:rgb(16.470588%,25.098039%,47.843137%);fill-opacity:1;" />
<path d="M 47.074219 271.078125 L 47.074219 390.1875 L 37.949219 390.1875 C 29.925781 377.175781 23.03125 363.394531 17.40625 348.984375 L 17.40625 271.078125 Z M 47.074219 271.078125 " style=" stroke:none;fill-rule:nonzero;fill:rgb(16.470588%,25.098039%,47.843137%);fill-opacity:1;" />
<path d="M 75.414062 271.074219 L 105.078125 271.074219 L 105.078125 390.1875 L 75.414062 390.1875 Z M 75.414062 271.074219 " style=" stroke:none;fill-rule:nonzero;fill:rgb(16.470588%,25.098039%,47.843137%);fill-opacity:1;" />
<path d="M 133.425781 271.074219 L 163.089844 271.074219 L 163.089844 390.1875 L 133.425781 390.1875 Z M 133.425781 271.074219 " style=" stroke:none;fill-rule:nonzero;fill:rgb(16.470588%,25.098039%,47.843137%);fill-opacity:1;" />
<path d="M 191.4375 271.074219 L 221.101562 271.074219 L 221.101562 390.1875 L 191.4375 390.1875 Z M 191.4375 271.074219 " style=" stroke:none;fill-rule:nonzero;fill:rgb(16.470588%,25.098039%,47.843137%);fill-opacity:1;" />
<path d="M 249.449219 271.074219 L 279.113281 271.074219 L 279.113281 390.1875 L 249.449219 390.1875 Z M 249.449219 271.074219 " style=" stroke:none;fill-rule:nonzero;fill:rgb(16.470588%,25.098039%,47.843137%);fill-opacity:1;" />
<path d="M 337.125 438.773438 L 337.125 498.875 C 327.480469 502.105469 317.585938 504.757812 307.460938 506.816406 L 307.460938 438.773438 Z M 337.125 438.773438 " style=" stroke:none;fill-rule:nonzero;fill:rgb(16.470588%,25.098039%,47.843137%);fill-opacity:1;" />
<path d="M 105.074219 438.773438 L 105.074219 462.796875 C 95.054688 455.472656 85.597656 447.445312 76.769531 438.773438 Z M 105.074219 438.773438 " style=" stroke:none;fill-rule:nonzero;fill:rgb(16.470588%,25.098039%,47.843137%);fill-opacity:1;" />
<path d="M 163.085938 438.773438 L 163.085938 494.601562 C 152.859375 490.632812 142.953125 486.011719 133.421875 480.800781 L 133.421875 438.773438 Z M 163.085938 438.773438 " style=" stroke:none;fill-rule:nonzero;fill:rgb(16.470588%,25.098039%,47.843137%);fill-opacity:1;" />
<path d="M 221.101562 438.773438 L 221.101562 509.636719 C 211.015625 508.269531 201.113281 506.304688 191.4375 503.777344 L 191.4375 438.773438 Z M 221.101562 438.773438 " style=" stroke:none;fill-rule:nonzero;fill:rgb(16.470588%,25.098039%,47.843137%);fill-opacity:1;" />
<path d="M 279.113281 438.773438 L 279.113281 510.964844 C 271.507812 511.65625 263.796875 512 256 512 C 253.804688 512 251.621094 511.96875 249.449219 511.90625 L 249.449219 438.773438 Z M 279.113281 438.773438 " style=" stroke:none;fill-rule:nonzero;fill:rgb(16.470588%,25.098039%,47.843137%);fill-opacity:1;" />
</g>
</svg>