<?xml version="1.0" encoding="iso-8859-1"?>
<!-- Generator: Adobe Illustrator 19.0.0, SVG Export Plug-In . SVG Version: 6.00 Build 0)  -->
<svg version="1.1" id="Capa_1" xmlns="http://www.w3.org/2000/svg" xmlns:xlink="http://www.w3.org/1999/xlink" x="0px" y="0px"
	 viewBox="0 0 512.002 512.002" style="enable-background:new 0 0 512.002 512.002;" xml:space="preserve">
<rect x="202.602" y="2.946" transform="matrix(-0.7071 0.7071 -0.7071 -0.7071 589.1129 306.0066)" style="fill:#EB8D00;" width="57.157" height="544.133"/>
<rect x="226.994" y="-7.155" transform="matrix(-0.7071 0.7071 -0.7071 -0.7071 599.2173 281.6194)" style="fill:#D17E00;" width="28.579" height="544.133"/>
<path style="fill:#CECED1;" d="M200.796,43.817l-8.784,2.885c-40.037,13.15-81.024,39.331-115.409,73.717
	c-34.387,34.386-60.568,75.373-73.718,115.409L0,244.613l26.711,26.71L227.508,70.526L200.796,43.817z"/>
<path style="fill:#AEADB3;" d="M200.796,43.817l-8.784,2.885c-40.037,13.15-81.024,39.331-115.409,73.717l50.506,50.507
	l100.399-100.4L200.796,43.817z"/>
<polygon style="fill:#AB5E00;" points="321.164,254.923 310.534,244.292 310.534,244.292 291.426,225.185 291.426,225.185 
	280.795,214.555 102.201,393.148 81.725,386.527 47.986,420.266 115.451,487.732 149.192,453.993 142.57,433.517 "/>
<polygon style="fill:#703E00;" points="310.534,244.292 310.534,244.292 301.522,235.28 82.261,454.541 115.451,487.732 
	149.192,453.993 142.57,433.517 321.164,254.923 "/>
<path style="fill:#CECED1;" d="M506.691,149.285c-28.52-53.056-67.915-93.36-117.09-119.794l-9.713-5.221L251.342,149.54
	l38.721,96.142l95.982,38.656l125.958-125.176L506.691,149.285z"/>
<path style="fill:#AEADB3;" d="M456.629,80.173L290.816,245.986l95.226,38.352L512,159.162l-5.31-9.876
	C492.612,123.093,475.877,100.015,456.629,80.173z"/>
<g>
</g>
<g>
</g>
<g>
</g>
<g>
</g>
<g>
</g>
<g>
</g>
<g>
</g>
<g>
</g>
<g>
</g>
<g>
</g>
<g>
</g>
<g>
</g>
<g>
</g>
<g>
</g>
<g>
</g>
</svg>
