<svg height="440pt" viewBox="0 0 440 440" width="440pt" xmlns="http://www.w3.org/2000/svg"><path d="m400 224h40v40h-40zm0 0" fill="#85bc94"/><path d="m400 224h40v16h-40zm0 0" fill="#6b9777"/><path d="m408 432h-80c-17.671875 0-32-14.328125-32-32v-100.542969c0-15.796875 11.523438-29.230469 27.136719-31.632812l76.863281-11.824219h40v144c0 17.671875-14.328125 32-32 32zm0 0" fill="#8dc79d"/><path d="m408 388.6875v-73.375l5.65625-5.65625c3.03125-3.140625 2.988281-8.128906-.097656-11.214844-3.085938-3.085937-8.074219-3.128906-11.214844-.097656l-5.65625 5.65625h-57.375l-5.65625-5.65625c-3.140625-3.03125-8.128906-2.988281-11.214844.097656-3.085937 3.085938-3.128906 8.074219-.097656 11.214844l5.65625 5.65625v73.375l-5.65625 5.65625c-2.078125 2.007812-2.914062 4.984375-2.179688 7.78125.730469 2.796875 2.914063 4.980469 5.710938 5.710938 2.796875.734374 5.773438-.101563 7.78125-2.179688l5.65625-5.65625h57.375l5.65625 5.65625c3.140625 3.03125 8.128906 2.988281 11.214844-.097656 3.085937-3.085938 3.128906-8.074219.097656-11.214844zm-64-68.6875h48v64h-48zm0 0" fill="#6b9777"/><path d="m24 32h272v400h-272zm0 0" fill="#a24a46"/><path d="m24 144h272v176h-272zm0 0" fill="#b6534f"/><path d="m216 232c0 30.929688-25.070312 56-56 56s-56-25.070312-56-56 25.070312-56 56-56 56 25.070312 56 56zm0 0" fill="#f3c52d"/><path d="m160 208-15.265625 25.441406c-4.90625 8.152344-2.53125 18.726563 5.394531 24 5.976563 3.984375 13.765625 3.984375 19.742188 0 7.925781-5.273437 10.300781-15.847656 5.394531-24zm0 0" fill="#787d82"/><path d="m48 0h48v32h-48zm0 0" fill="#a24a46"/><path d="m312 440h-304c-4.417969 0-8-3.582031-8-8s3.582031-8 8-8h304c4.417969 0 8 3.582031 8 8s-3.582031 8-8 8zm0 0" fill="#c95c57"/><g fill="#b6534f"><path d="m48 56h16v64h-16zm0 0"/><path d="m48 168h16v128h-16zm0 0"/><path d="m48 344h16v64h-16zm0 0"/></g><path d="m312 152h-304c-4.417969 0-8-3.582031-8-8s3.582031-8 8-8h304c4.417969 0 8 3.582031 8 8s-3.582031 8-8 8zm0 0" fill="#c95c57"/><path d="m312 40h-304c-4.417969 0-8-3.582031-8-8s3.582031-8 8-8h304c4.417969 0 8 3.582031 8 8s-3.582031 8-8 8zm0 0" fill="#c95c57"/><path d="m312 328h-304c-4.417969 0-8-3.582031-8-8s3.582031-8 8-8h304c4.417969 0 8 3.582031 8 8s-3.582031 8-8 8zm0 0" fill="#c95c57"/></svg>