<?xml version="1.0" encoding="iso-8859-1"?>
<!-- Generator: Adobe Illustrator 19.0.0, SVG Export Plug-In . SVG Version: 6.00 Build 0)  -->
<svg version="1.1" id="Capa_1" xmlns="http://www.w3.org/2000/svg" xmlns:xlink="http://www.w3.org/1999/xlink" x="0px" y="0px"
	 viewBox="0 0 512 512" style="enable-background:new 0 0 512 512;" xml:space="preserve">
<rect x="54.42" y="134.61" style="fill:#758892;" width="30" height="256.93"/>
<rect x="427.58" y="134.61" style="fill:#475A61;" width="30" height="256.93"/>
<polygon style="fill:#3B4B51;" points="512,357.208 256,357.208 235.984,435.079 256,512 512,512 "/>
<rect y="357.21" style="fill:#475A61;" width="256" height="154.79"/>
<rect x="53.938" y="404.12" style="fill:#00FF8E;" width="30.958" height="30"/>
<rect x="115.85" y="404.12" style="fill:#FFF361;" width="30.958" height="30"/>
<rect x="177.77" y="404.12" style="fill:#FF7CBA;" width="30.958" height="30"/>
<rect x="303.27" y="435.08" style="fill:#B0CED3;" width="154.79" height="30"/>
<g>
	<path style="fill:#A2D7FD;" d="M318.144,171.352c-17.133-17.134-39.639-25.701-62.144-25.701L245.992,162L256,175.638
		c14.823,0,29.646,5.642,40.931,16.926L318.144,171.352z"/>
	<path style="fill:#A2D7FD;" d="M369.661,119.834C338.325,88.497,297.162,72.829,256,72.829L245.992,89.53L256,102.816
		c33.48,0,66.96,12.744,92.448,38.231L369.661,119.834z"/>
	<path style="fill:#A2D7FD;" d="M421.178,68.317C377.124,24.263,318.462,0,256,0l-10.008,15.333L256,29.993
		c52.137,0,104.274,19.846,143.965,59.537L421.178,68.317z"/>
</g>
<g>
	<path style="fill:#CCE7FD;" d="M193.856,171.352l21.213,21.213c11.285-11.284,26.108-16.926,40.931-16.926v-29.987
		C233.495,145.651,210.989,154.218,193.856,171.352z"/>
	<path style="fill:#CCE7FD;" d="M142.339,119.834l21.213,21.213C189.04,115.56,222.52,102.816,256,102.816V72.829
		C214.838,72.829,173.675,88.497,142.339,119.834z"/>
	<path style="fill:#CCE7FD;" d="M90.822,68.317l21.213,21.213C151.726,49.839,203.863,29.993,256,29.993V0
		C193.538,0,134.876,24.263,90.822,68.317z"/>
</g>
<g>
</g>
<g>
</g>
<g>
</g>
<g>
</g>
<g>
</g>
<g>
</g>
<g>
</g>
<g>
</g>
<g>
</g>
<g>
</g>
<g>
</g>
<g>
</g>
<g>
</g>
<g>
</g>
<g>
</g>
</svg>
